:FULLY-SPECIFIED
:FORCE-ALL-JOINTS-BE-3DOF
:DEGREES
612
root -4.22769 15.7747 -40.4864 -3.30134 -74.3045 9.4616
lfemur -7.00116 13.1306 -15.6239
ltibia 42.7236 -0 0
lfoot -21.317 28.5386 -0.00125064
ltoes -23.5417 0 0
rfemur -44.0513 -31.4757 17.7041
rtibia 80.3266 -0 0
rfoot -12.8707 -17.6926 0.113632
rtoes 3.10356 -0 0
lowerback 11.5395 4.95055 -6.39927
upperback -2.31168 5.53861 -1.18068
thorax -9.4738 2.96961 1.21571
lowerneck 2.07211 -10.9152 -11.8216
upperneck -1.15709 -14.8613 11.6924
head 1.09282 -7.48512 5.09417
lclavicle 3.39176e-15 2.65378e-14 0
lhumerus -72.0682 -24.521 105.214
lradius 102.522 -0 0
lwrist 55.8784 0 0
lhand 8.30135 56.4193 0.209446
lfingers 7.12502 -0 0
lthumb 33.496 83.1632 0.160493
rclavicle 3.39176e-15 2.65378e-14 0
rhumerus 25.8494 27.3823 -44.3084
rradius 111.877 -0 0
rwrist -23.3501 0 0
rhand -14.2481 -28.815 0.034344
rfingers 7.12502 -0 0
rthumb 11.8888 -58.425 0.0361482
613
root -4.22412 15.7741 -40.4601 -2.954 -74.7469 9.29802
lfemur -7.10684 13.1894 -15.6783
ltibia 42.9121 -0 0
lfoot -21.3364 28.7688 -0.00199573
ltoes -23.5907 0 0
rfemur -43.5441 -31.4915 18.022
rtibia 79.6142 -0 0
rfoot -13.5268 -18.3087 0.181398
rtoes 2.43957 -0 0
lowerback 11.2951 4.96113 -6.35555
upperback -2.39705 5.5759 -1.18411
thorax -9.42245 2.98698 1.1976
lowerneck 1.95498 -10.8417 -11.7604
upperneck -1.11279 -14.7532 11.6993
head 1.10891 -7.42807 5.08593
lclavicle 3.39176e-15 2.65378e-14 0
lhumerus -72.08 -24.4962 105.278
lradius 102.535 -0 0
lwrist 55.4201 0 0
lhand 7.20915 55.7419 0.334489
lfingers 7.12502 -0 0
lthumb 32.4477 82.6212 0.256277
rclavicle 3.39176e-15 2.65378e-14 0
rhumerus 25.9046 26.7073 -44.5401
rradius 110.427 -0 0
rwrist -23.8684 0 0
rhand -14.9107 -28.9998 0.0548161
rfingers 7.12502 -0 0
rthumb 11.2492 -58.6267 0.0576952
614
root -4.22479 15.7729 -40.4354 -2.53889 -75.2518 9.09249
lfemur -7.22759 13.2563 -15.7405
ltibia 43.1274 -0 0
lfoot -21.3586 29.0317 -0.00275094
ltoes -23.6467 0 0
rfemur -42.9651 -31.5125 18.3849
rtibia 78.8008 -0 0
rfoot -14.2767 -19.0131 0.250135
rtoes 1.68143 -0 0
lowerback 11.0161 4.97343 -6.30568
upperback -2.49453 5.61847 -1.18809
thorax -9.36381 3.00682 1.17694
lowerneck 1.82138 -10.7577 -11.6908
upperneck -1.06221 -14.6299 11.7073
head 1.12727 -7.36292 5.07655
lclavicle 3.39176e-15 2.65378e-14 0
lhumerus -72.0935 -24.4678 105.352
lradius 102.55 -0 0
lwrist 54.8969 0 0
lhand 5.96037 54.9656 0.461433
lfingers 7.12502 -0 0
lthumb 31.2498 82.0003 0.353491
rclavicle 3.39176e-15 2.65378e-14 0
rhumerus 25.9709 25.9369 -44.8039
rradius 108.771 -0 0
rwrist -24.4602 0 0
rhand -15.6674 -29.2112 0.0755749
rfingers 7.12502 -0 0
rthumb 10.5188 -58.8571 0.0795434
615
root -4.22926 15.7713 -40.4123 -2.055 -75.809 8.83983
lfemur -7.36111 13.3301 -15.8094
ltibia 43.3652 -0 0
lfoot -21.3831 29.322 -0.00346673
ltoes -23.7086 0 0
rfemur -42.3256 -31.5393 18.7855
rtibia 77.9024 -0 0
rfoot -15.1059 -19.7921 0.315332
rtoes 0.844011 -0 0
lowerback 10.7078 4.98731 -6.25067
upperback -2.60222 5.66549 -1.19257
thorax -9.29906 3.02877 1.15414
lowerneck 1.67397 -10.6647 -11.6141
upperneck -1.00635 -14.4937 11.7161
head 1.14753 -7.29096 5.06622
lclavicle 3.39176e-15 2.65378e-14 0
lhumerus -72.1083 -24.4365 105.433
lradius 102.567 -0 0
lwrist 54.3189 0 0
lhand 4.57911 54.1052 0.581937
lfingers 7.12502 -0 0
lthumb 29.9254 81.3122 0.44575
rclavicle 3.39176e-15 2.65378e-14 0
rhumerus 26.0482 25.0862 -45.0944
rradius 106.942 -0 0
rwrist -25.1139 0 0
rhand -16.5033 -29.4449 0.095258
rfingers 7.12502 -0 0
rthumb 9.7119 -59.112 0.100259
